<svg width="16" height="16" viewBox="0 0 16 16" fill="none" xmlns="http://www.w3.org/2000/svg">
<g clip-path="url(#clip0_119_48)">
<mask id="path-1-inside-1_119_48" fill="white">
<path d="M8 4H16V16H8L10 12H12V8H8V12L0 6L8 0"/>
</mask>
<path d="M8 4H16V16H8L10 12H12V8H8V12L0 6L8 0" fill="#78DCCA"/>
<path d="M16 4H17V3H16V4ZM16 16V17H17V16H16ZM8 16L7.10557 15.5528L6.38197 17H8V16ZM10 12V11H9.38197L9.10557 11.5528L10 12ZM12 12V13H13V12H12ZM12 8H13V7H12V8ZM8 8V7H7V8H8ZM8 12L7.4 12.8L9 14V12H8ZM0 6L-0.6 5.2L-1.66667 6L-0.6 6.8L0 6ZM8 4V5H16V4V3H8V4ZM16 4H15V16H16H17V4H16ZM16 16V15H8V16V17H16V16ZM8 16L8.89443 16.4472L10.8944 12.4472L10 12L9.10557 11.5528L7.10557 15.5528L8 16ZM10 12V13H12V12V11H10V12ZM12 12H13V8H12H11V12H12ZM12 8V7H8V8V9H12V8ZM8 8H7V12H8H9V8H8ZM8 12L8.6 11.2L0.6 5.2L0 6L-0.6 6.8L7.4 12.8L8 12ZM0 6L0.6 6.8L8.6 0.8L8 0L7.4 -0.8L-0.6 5.2L0 6Z" fill="#163148" mask="url(#path-1-inside-1_119_48)"/>
</g>
<defs>
<clipPath id="clip0_119_48">
<rect width="16" height="16" fill="white"/>
</clipPath>
</defs>
</svg>
