<svg width="28" height="28" viewBox="0 0 28 28" fill="none" xmlns="http://www.w3.org/2000/svg">
<circle cx="16" cy="14" r="8" fill="#163148"/>
<path d="M23.0175 24.787C25.467 24.787 26.6975 23.58 26.6975 21.1545V6.845C26.6975 4.4195 25.467 3.2125 23.0175 3.2125H12.834C11.463 3.2125 10.279 3.564 9.31848 4.5835L2.41598 11.756C1.65448 12.541 1.30298 13.244 1.30298 13.9825C1.30298 14.709 1.64298 15.424 2.41598 16.209L9.32998 23.3455C10.303 24.3535 11.475 24.7755 12.846 24.7755L23.0175 24.787ZM20.2875 19.1855C20.006 19.1855 19.76 19.0805 19.5605 18.8925L16.1385 15.4475L12.705 18.8925C12.506 19.08 12.26 19.1855 11.9785 19.1855C11.4045 19.1855 10.9235 18.717 10.9235 18.1425C10.9235 17.873 11.041 17.6155 11.2405 17.4045L14.6505 13.9825L11.2405 10.5725C11.041 10.3615 10.924 10.1035 10.924 9.834C10.924 9.248 11.404 8.7675 11.979 8.7675C12.248 8.7675 12.506 8.873 12.717 9.084L16.1385 12.506L19.5485 9.084C19.76 8.873 20.0175 8.7675 20.287 8.7675C20.873 8.7675 21.342 9.248 21.342 9.834C21.342 10.104 21.2365 10.3615 21.0255 10.5725L17.6155 13.9825L21.0255 17.4045C21.2365 17.6155 21.342 17.873 21.342 18.1425C21.342 18.717 20.862 19.1855 20.2875 19.1855Z" fill="#DB4A25"/>
</svg>
