<svg width="16" height="16" viewBox="0 0 16 16" fill="none" xmlns="http://www.w3.org/2000/svg">
<path fill-rule="evenodd" clip-rule="evenodd" d="M11.4999 7C11.4999 7.59095 11.3835 8.17611 11.1574 8.72208C10.9312 9.26804 10.5997 9.76412 10.1819 10.182C9.76401 10.5998 9.26794 10.9313 8.72197 11.1575C8.17601 11.3836 7.59085 11.5 6.9999 11.5C6.40895 11.5 5.82379 11.3836 5.27782 11.1575C4.73186 10.9313 4.23578 10.5998 3.81792 10.182C3.40005 9.76412 3.06859 9.26804 2.84244 8.72208C2.61629 8.17611 2.4999 7.59095 2.4999 7C2.4999 5.80653 2.974 4.66193 3.81792 3.81802C4.66183 2.97411 5.80642 2.5 6.9999 2.5C8.19337 2.5 9.33796 2.97411 10.1819 3.81802C11.0258 4.66193 11.4999 5.80653 11.4999 7ZM10.6799 11.74C9.47427 12.676 7.95726 13.1173 6.4377 12.9741C4.91813 12.831 3.51024 12.1141 2.50065 10.9694C1.49105 9.82471 0.955648 8.3383 1.00343 6.81275C1.05122 5.2872 1.6786 3.83721 2.75785 2.75795C3.8371 1.6787 5.2871 1.05132 6.81265 1.00354C8.3382 0.955751 9.82461 1.49115 10.9693 2.50075C12.114 3.51034 12.8309 4.91823 12.974 6.4378C13.1172 7.95737 12.6759 9.47438 11.7399 10.68L14.5299 13.47C14.6036 13.5387 14.6627 13.6215 14.7037 13.7135C14.7447 13.8055 14.7667 13.9048 14.7685 14.0055C14.7703 14.1062 14.7517 14.2062 14.714 14.2996C14.6763 14.393 14.6202 14.4778 14.5489 14.549C14.4777 14.6203 14.3929 14.6764 14.2995 14.7141C14.2061 14.7518 14.1061 14.7704 14.0054 14.7686C13.9047 14.7668 13.8054 14.7448 13.7134 14.7038C13.6214 14.6628 13.5386 14.6037 13.4699 14.53L10.6799 11.74Z" fill="black"/>
</svg>
